<svg xmlns="http://www.w3.org/2000/svg" viewBox="15 65 325 235">
  <g transform="rotate(60, 180, 180)">
    <g transform="translate(50, 73)">
      <path
        fill="#FFD700"
        fill-rule="nonzero"
        d="M0 0 C4.04555841 1.34851947 5.64958844 4.08949282 8.125 7.375 C9.1058733 8.65043034 10.08765718 9.92516087 11.0703125 11.19921875 C11.56047852 11.83778809 12.05064453 12.47635742 12.55566406 13.13427734 C14.66153788 15.85454233 16.82405338 18.52285717 19 21.1875 C19.70125 22.04730469 20.4025 22.90710938 21.125 23.79296875 C22.84628168 25.97729337 22.84628168 25.97729337 24.69140625 27.29296875 C26.88689965 30.15694074 26.68102232 33.63877566 26.9375 37.125 C27.9052242 47.00657388 30.18542367 53.50200699 37.03125 60.85546875 C39.19956679 63.21738525 41.18642307 65.6825287 43.1875 68.1875 C50.72392401 77.43440932 58.66353405 86.52743832 68 94 C68.90621094 94.74378906 69.81242187 95.48757812 70.74609375 96.25390625 C96.26420827 116.81220792 125.75248213 129.47274734 158.75 129.375 C159.47476532 129.37412384 160.19953064 129.37324768 160.94625854 129.37234497 C197.14260247 129.22876586 230.61874105 116.01689263 263.73535156 102.51196289 C277.45871988 96.91881289 277.45871988 96.91881289 285 98 C289.94767479 100.38221379 292.18339575 102.8370195 294 108 C295.53476989 112.78072 295.64811118 116.37767107 293.765625 121.08984375 C291.69633171 124.87912655 289.43927555 128.44084821 287 132 C286.49452637 132.73992187 285.98905273 133.47984375 285.46826172 134.2421875 C277.53851593 145.69335862 268.86969189 156.17713939 259 166 C258.24686523 166.75700195 258.24686523 166.75700195 257.47851562 167.52929688 C239.98644116 184.92795573 217.74340359 197.50174672 194 204 C192.8140625 204.33902344 191.628125 204.67804688 190.40625 205.02734375 C171.71689734 209.43559324 148.51999467 208.90554005 130 204 C129.26974609 203.81727539 128.53949219 203.63455078 127.78710938 203.44628906 C93.00266014 194.58280388 58.75103044 177.18047585 33 152 C32.17886719 151.22914063 31.35773438 150.45828125 30.51171875 149.6640625 C16.74018904 136.4711685 5.49452952 116.86856617 4.6953125 97.515625 C4.53095533 88.97613653 4.69277599 81.25171883 7 73 C7.74103295 64.40401782 6.09846215 55.12456353 2.1875 47.4375 C0.03352674 44.84881802 0.03352674 44.84881802 -3.0625 42.875 C-6.97433257 39.84113484 -7.20077074 35.78507068 -8.14453125 31.140625 C-9.28548845 26.95190542 -11.33153064 23.79334645 -13.79296875 20.25390625 C-15.28666125 17.46471345 -15.61948726 16.11664522 -15 13 C-12.734375 10.4296875 -12.734375 10.4296875 -9.75 7.875 C-8.77546875 7.02679688 -7.8009375 6.17859375 -6.796875 5.3046875 C-5.87390625 4.54414062 -4.9509375 3.78359375 -4 3 C-3.28328125 2.38382812 -2.5665625 1.76765625 -1.828125 1.1328125 C-1.22484375 0.758984375 -0.6215625 0.38515625 0 0 Z M-6.5625 8.5 C-7.48579102 9.28697266 -7.48579102 9.28697266 -8.42773438 10.08984375 C-9.95368829 11.39104476 -11.47708209 12.69524697 -13 14 C-10.61979781 21.79080814 -6.89690488 30.19458103 -0.375 35.375 C2.75918739 37.34018017 2.75918739 37.34018017 5.31640625 36.359375 C8.49334753 34.7500947 11.36953418 32.88009759 14.3125 30.875 C15.38113281 30.15054688 16.44976562 29.42609375 17.55078125 28.6796875 C18.35902344 28.12539062 19.16726562 27.57109375 20 27 C15.85519565 21.3943761 11.58202361 15.91172805 7.1875 10.5 C6.31061523 9.40945312 6.31061523 9.40945312 5.41601562 8.296875 C4.85978516 7.61109375 4.30355469 6.9253125 3.73046875 6.21875 C3.22926514 5.59935547 2.72806152 4.97996094 2.21166992 4.34179688 C1.81181885 3.89900391 1.41196777 3.45621094 1 3 C-1.51388833 3 -4.61226853 6.82719872 -6.5625 8.5 Z M21 28 C20.54149658 28.34369629 20.08299316 28.68739258 19.6105957 29.04150391 C17.52474009 30.58859025 15.41939833 32.10671295 13.3125 33.625 C12.59126953 34.16640625 11.87003906 34.7078125 11.12695312 35.265625 C9.12006254 36.6951909 7.24143685 37.97486677 5 39 C2.125 38.40625 2.125 38.40625 0 37 C-0.763125 36.62875 -1.52625 36.2575 -2.3125 35.875 C-3.1478125 35.441875 -3.1478125 35.441875 -4 35 C-3.91783774 37.79351676 -3.52528501 39.49632055 -1.48046875 41.45703125 C-0.27005212 42.42281631 0.96010827 43.36450454 2.2109375 44.27734375 C7.08634637 48.97178766 7.95584075 55.51062845 9.1875 61.875 C9.36474609 62.75414062 9.54199219 63.63328125 9.72460938 64.5390625 C10.15739734 66.69130536 10.58229606 68.84478811 11 71 C17.27906974 72.69872248 20.99323784 73.44851805 26.9140625 70.42578125 C30.25846193 68.13981535 32.65473499 65.2741739 35 62 C33.88625 61.0409375 33.88625 61.0409375 32.75 60.0625 C26.64818189 53.90882508 24.03088653 44.16701094 23.98828125 35.66015625 C24.01277344 34.94730469 24.03726563 34.23445313 24.0625 33.5 C24.0315625 31.7675 24.0315625 31.7675 24 30 C23.01 29.34 22.02 28.68 21 28 Z M36 64 C34.30911778 65.97956942 32.64169528 67.97945196 31 70 C56.6115233 107.0248581 87.30543055 138.0310507 133.16015625 146.58984375 C185.04272281 152.13172522 238.80005904 133.96605673 284 110 C284 106.30581799 282.71820705 104.22163822 281 101 C272.93192747 101.41024098 266.42164681 103.92929299 259 107 C256.50496871 108.00537938 254.0091086 109.00834255 251.51171875 110.0078125 C250.88335617 110.26031769 250.25499359 110.51282288 249.60758972 110.77297974 C203.85317046 129.10303934 155.55588092 141.62173852 108 122 C80.77741329 109.76094921 56.55652488 90.48956418 38.86328125 66.421875 C38.24839844 65.62265625 37.63351563 64.8234375 37 64 C36.67 64 36.34 64 36 64 Z M26.5 72.5 C21.00025281 74.85703451 15.71751845 74.6040097 10 73 C4.35302641 91.65518061 6.96979064 109.76949111 16 127 C21.58808707 136.32437141 28.39957275 144.29068411 36 152 C37.13308594 153.15242188 37.13308594 153.15242188 38.2890625 154.328125 C69.9125019 184.53883343 120.95345173 205.63626043 164.65332031 205.22998047 C203.84143049 204.31053278 236.96814768 185.8206712 263.859375 158.08203125 C265.63496779 156.09928597 267.3231188 154.06709884 269 152 C269.83144531 150.99453125 270.66289062 149.9890625 271.51953125 148.953125 C279.35638901 139.33105855 286.44002551 129.11994898 292 118 C290.02 115.69 288.04 113.38 286 111 C285.14664062 111.44988281 284.29328125 111.89976562 283.4140625 112.36328125 C234.67204418 137.62081305 171.08730555 159.98393115 115.94921875 144.3125 C80.29951642 132.92477603 49.92152316 104.18767316 30.99145508 72.4753418 C30.6642749 71.988479 30.33709473 71.50161621 30 71 C28.65700283 70.91425071 28.65700283 70.91425071 26.5 72.5 Z M284 101 C285.46032495 106.31027254 287.98320986 110.46330032 291 115 C292.44926837 110.54447901 291.1032744 108.13143187 289 104 C287.58408173 102.07716915 287.58408173 102.07716915 286 101 C285.34 101 284.68 101 284 101 Z"
      />
    </g>
  </g>
</svg>
